<?xml version="1.0" encoding="UTF-8"?>
<svg id="a" data-name="Layer 1" xmlns="http://www.w3.org/2000/svg" viewBox="0 0 279.7 96.7">
  <path d="m123.2,96.7h-.5c-.8-.4-1.6-.9-2.4-1.3-13.2-5.9-26.3-11.8-39.5-17.8-3.1-1.4-6.2-2.8-9.8-4.4-.8,4-1.6,7.5-2.1,11.1-.3,2.1-1.3,2.9-3.3,3.2-17.4,2.7-34.8,5.4-52.2,8.1-3.6.6-3.6.5-4.1-3-2.1-13.1-4.4-26.3-6.4-39.4-1-6.6-3.3-13.2-1.3-20.1,1.2-4,1.9-8.1,2.5-12.2.3-2,1.3-2.7,3.1-3,17.9-2.8,35.9-5.7,53.8-8.6,2-.3,2.8.3,3,2.3,1,7.2,2.1,14.3,3.2,21.5.6,4.3,1.3,8.5,1.9,12.8.9-.7,1.3-1.5,1.7-2.3,5.5-12.9,10.9-25.9,16.4-38.8,1.9-4.4,1.2-4.2,5.7-2.1,15.1,6.9,30.2,13.8,45.3,20.8,2,.9,3.7,2.4,5.6,3.6.3-2.7,2.8-3,5.3-3.3,6.4-.9,12.8-1.7,19.2-2.6,10.7-1.5,21.4-3,32.1-4.5,3.7-.5,3.8-.4,4.3,3.3,1.5,11.7,3.1,23.3,4.6,35,.2,1.3.3,2.6.4,4.1.3-.3.5-.3.5-.4,0-5.4,0-10.9,0-16.3q0-11.1,7.5-19c1.3-1.4,2.7-2.1,4.7-2.1,19.1,0,38.2,0,57.3,0v66.3c-2.3,2.2-4.6,4.3-6.8,6.7-1.5,1.6-3.1,2.2-5.3,2.2-17.2,0-34.5,0-51.7,0-6.1,0-5.6.7-5.7-5.7,0-2.8,0-5.6,0-8.4-1,.8-1.4,1.6-1.6,2.5-.5,2.6-2,3.6-4.7,3.9-17.5,2.4-35.1,4.8-52.6,7.3-2.2.3-2.9-.4-3.2-2.4-1.1-8.2-2.2-16.3-3.4-24.5-.7-5-1.4-9.9-2.1-14.9-1.6,2.2-2.6,4.5-3.7,6.8-5.3,11.9-10.6,23.8-15.9,35.7Zm9.3-42.6c-.3-7.4-3.8-14.9-12.4-19.2-8.5-4.3-16.8-3.1-24.3,2.5-8.8,6.6-12.9,19.4-9.7,29.9,3.8,12.3,17.4,18.9,29.5,14.2,10.1-3.9,16.9-14.3,17-27.5Zm106.9,35.1c13.6,0,23.8-10.5,23.8-24.7,0-13.8-10.4-24.8-23.6-24.8-13.5,0-23.7,10.7-23.7,24.8,0,14.1,10,24.6,23.5,24.6Zm-44.4-7.8c0-.2,0-.7-.1-1.1-1.3-8.7-2.6-17.4-3.8-26-.7-4.5-1.2-9-2-13.4-.7-4.1-4.1-5.9-7.3-4-2.1,1.3-2.5,3.4-2.2,5.7.6,4.1,1.1,8.3,1.8,12.4.4,2.3-.4,3.1-2.6,3.3-3.4.4-6.8,1-10.2,1.5-4,.6-4,.6-4.5-3.4-.5-4-1.1-8.1-1.8-12.1-.4-2.2-1.6-3.9-4-4.2-2.1-.2-4.1.5-4.9,2.6-.5,1.4-.5,3-.3,4.5.7,5.7,1.6,11.5,2.5,17.2,1.1,7.2,2.1,14.3,3.2,21.5.6,3.7,3.2,5.6,6.2,4.7,2.5-.7,3.7-2.9,3.3-6.1-.6-4.5-1.3-9-2-13.4-.3-1.7.2-2.5,2-2.7,4.1-.5,8.1-1.1,12.1-1.8,2-.4,2.8.1,3.1,2.2.6,4.6,1.3,9.1,2.1,13.7.5,3,2.7,4.7,5.3,4.4,2.6-.3,4.2-2.2,4.2-5.3Zm-164.9-2.1c-.3-.2-.6-.5-.9-.7,1.4-2.6,2.6-5.2,4.3-7.6,3-4.4,6.3-8.6,9.3-13,3-4.4,4.3-9.3,3.9-14.7-.5-5.4-2.3-6.9-7.6-6-5.3.9-10.6,1.7-15.8,2.7-2,.4-4.3.7-6,1.7-1.2.7-2.2,2.7-2.3,4.1-.1,1.9,1.4,3.3,3.5,3.5,1.4.1,2.9,0,4.3-.2,4.6-.7,9.3-1.5,14.5-2.4-.4,1.9-.4,3.4-1.1,4.5-1.4,2.4-3.2,4.6-4.8,6.9-3.4,5-6.9,9.9-10,15.2-2.1,3.6-2.5,7.8-1.6,11.9.7,3.2,1.9,4.3,5.1,3.9,4.7-.5,9.4-1.2,14-2,3.9-.7,7.8-1.4,11.7-2.4,2.1-.5,3.3-2.1,3-4.5-.3-2.4-2-3.4-4.1-3.5-1.9,0-3.8,0-5.7.4-4.7.7-9.3,1.5-13.9,2.3Z"/>
  <path d="m279.7,21.1c-19.1,0-38.2,0-57.3,0-2,0-3.4.7-4.7,2.1q-7.4,8-7.5,19c0,5.4,0,10.9,0,16.3,0,0-.1,0-.5.4-.2-1.5-.3-2.8-.4-4.1-1.5-11.7-3-23.4-4.6-35-.5-3.6-.6-3.8-4.3-3.3-10.7,1.5-21.4,3-32.1,4.5-6.4.9-12.8,1.8-19.2,2.6-2.5.3-5,.6-5.3,3.3-1.9-1.2-3.6-2.7-5.6-3.6-15.1-7-30.2-13.9-45.3-20.8-4.6-2.1-3.9-2.3-5.7,2.1-5.5,12.9-10.9,25.9-16.4,38.8-.3.8-.7,1.6-1.7,2.3-.6-4.3-1.3-8.5-1.9-12.8-1.1-7.2-2.2-14.3-3.2-21.5-.3-2-1-2.6-3-2.3-17.9,2.9-35.9,5.8-53.8,8.6-1.9.3-2.8,1-3.1,3-.6,4.1-1.3,8.3-2.5,12.2-2,6.9.3,13.5,1.3,20.1,2,13.2,4.2,26.3,6.4,39.4.6,3.5.6,3.5,4.1,3,17.4-2.7,34.8-5.5,52.2-8.1,2-.3,3-1.1,3.3-3.2.5-3.5,1.3-7.1,2.1-11.1,3.6,1.6,6.7,3,9.8,4.4,13.2,5.9,26.3,11.8,39.5,17.8.8.4,1.6.9,2.4,1.3H0V0h279.7v21.1Z" fill="#fff"/>
  <path d="m123.2,96.7c5.3-11.9,10.6-23.8,15.9-35.7,1-2.3,2-4.6,3.7-6.8.7,5,1.4,9.9,2.1,14.9,1.1,8.1,2.3,16.3,3.4,24.5.3,2,1,2.7,3.2,2.4,17.5-2.5,35-5,52.6-7.3,2.6-.3,4.2-1.3,4.7-3.9.2-.9.6-1.7,1.6-2.5,0,2.8,0,5.6,0,8.4,0,6.5-.4,5.7,5.7,5.7,17.2,0,34.5,0,51.7,0,2.2,0,3.8-.6,5.3-2.2,2.2-2.3,4.5-4.4,6.8-6.7v9.2c-52.2,0-104.3,0-156.5,0Z" fill="#fff"/>
  <path d="m132.5,54.1c0,13.1-6.9,23.5-17,27.5-12.1,4.7-25.7-1.9-29.5-14.2-3.2-10.5.8-23.4,9.7-29.9,7.6-5.6,15.8-6.7,24.3-2.5,8.6,4.3,12.1,11.8,12.4,19.2Zm-37.7,6.2c0,6.6,2.7,10.7,7.7,12.7,4.9,2,9.9,1,13.6-3.1,4-4.3,6.2-9.5,6.5-15.5.2-5.9-2.6-10.1-7.8-12.1-5.2-2-10.2-.8-14,3.7-3.8,4.4-5.8,9.6-6.1,14.3Z" fill="#fff"/>
  <path d="m239.4,89.2c-13.5,0-23.5-10.6-23.5-24.6,0-14.1,10.3-24.8,23.7-24.8,13.2,0,23.6,11,23.6,24.8,0,14.1-10.3,24.7-23.8,24.7Zm13.4-24.5c-.5-2.5-.7-5.2-1.5-7.6-1.8-5.6-6.1-8.6-11.9-8.6-5.7,0-10.1,3.1-11.9,8.6-1.6,4.9-1.6,9.8,0,14.7,1.8,5.4,6.3,8.5,11.9,8.5,5.7,0,10.1-3.1,11.9-8.6.7-2.2.9-4.6,1.4-7Z" fill="#fff"/>
  <path d="m195,81.3c0,3.1-1.6,5-4.2,5.3-2.6.3-4.8-1.3-5.3-4.4-.8-4.5-1.5-9.1-2.1-13.7-.3-2-1.1-2.5-3.1-2.2-4,.7-8.1,1.3-12.1,1.8-1.8.2-2.3,1-2,2.7.7,4.5,1.4,8.9,2,13.4.4,3.2-.8,5.4-3.3,6.1-3.1.9-5.7-1-6.2-4.7-1.1-7.1-2.2-14.3-3.2-21.5-.9-5.7-1.8-11.4-2.5-17.2-.2-1.5-.1-3.1.3-4.5.8-2.1,2.7-2.8,4.9-2.6,2.4.2,3.6,2,4,4.2.7,4,1.2,8,1.8,12.1.5,4,.5,4,4.5,3.4,3.4-.5,6.8-1.1,10.2-1.5,2.2-.2,3-1,2.6-3.3-.8-4.1-1.2-8.2-1.8-12.4-.3-2.3,0-4.4,2.2-5.7,3.2-2,6.6-.2,7.3,4,.8,4.5,1.4,8.9,2,13.4,1.3,8.7,2.6,17.4,3.8,26,0,.4,0,.9.1,1.1Z" fill="#fff"/>
  <path d="m30.1,79.3c4.6-.8,9.3-1.6,13.9-2.3,1.9-.3,3.8-.4,5.7-.4,2.2,0,3.8,1.1,4.1,3.5.3,2.4-.9,4-3,4.5-3.9,1-7.8,1.8-11.7,2.4-4.6.8-9.3,1.6-14,2-3.2.3-4.4-.7-5.1-3.9-.9-4.1-.5-8.3,1.6-11.9,3-5.2,6.6-10.2,10-15.2,1.6-2.3,3.4-4.5,4.8-6.9.7-1.1.6-2.6,1.1-4.5-5.3.9-9.9,1.7-14.5,2.4-1.4.2-2.9.4-4.3.2-2.1-.2-3.6-1.6-3.5-3.5,0-1.5,1.1-3.4,2.3-4.1,1.7-1,3.9-1.3,6-1.7,5.3-1,10.6-1.8,15.8-2.7,5.3-.9,7.2.6,7.6,6,.5,5.3-.9,10.3-3.9,14.7-3,4.4-6.3,8.6-9.3,13-1.6,2.4-2.8,5.1-4.3,7.6.3.2.6.5.9.7Z" fill="#fff"/>
  <path d="m94.8,60.2c.3-4.7,2.3-9.9,6.1-14.3,3.8-4.4,8.8-5.7,14-3.7,5.2,2,8.1,6.2,7.8,12.1-.2,5.9-2.5,11.1-6.5,15.5-3.8,4.1-8.7,5.1-13.6,3.1-5.1-2.1-7.7-6.1-7.7-12.7Z"/>
  <path d="m252.8,64.7c-.5,2.5-.7,4.8-1.4,7-1.8,5.5-6.2,8.6-11.9,8.6-5.7,0-10.1-3.1-11.9-8.5-1.6-4.9-1.6-9.8,0-14.7,1.8-5.5,6.2-8.6,11.9-8.6,5.7,0,10.1,3,11.9,8.6.8,2.5,1,5.1,1.5,7.6Z"/>
</svg>